<svg id="Layer_1" enable-background="new 0 0 512 512" height="512" viewBox="0 0 512 512" width="512" xmlns="http://www.w3.org/2000/svg"><g><g><g><path d="m100 84.5c-3.839 0-7.678-1.464-10.606-4.394l-50.107-50.106h-24.287c-8.284 0-15-6.716-15-15s6.716-15 15-15h30.5c3.978 0 7.793 1.581 10.606 4.394l54.5 54.5c5.858 5.858 5.858 15.355 0 21.213-2.928 2.929-6.767 4.393-10.606 4.393z" fill="#007a9f"/></g></g><path d="m92.364 425.255 44.493-39.282c-38.482-33.395-62.857-82.641-62.857-137.473 0-100.355 81.645-182 182-182 2.893 0 5.769.075 8.63.21l14.839-58.064c-7.725-.751-15.551-1.146-23.469-1.146-132.888 0-241 108.112-241 241 0 69.774 29.817 132.705 77.364 176.755z" fill="#7dd5f4"/><g><path d="m412 95.5c-3.839 0-7.678-1.464-10.606-4.394-5.858-5.858-5.858-15.355 0-21.213l54.5-54.5c2.813-2.812 6.628-4.393 10.606-4.393h30.5c8.284 0 15 6.716 15 15s-6.716 15-15 15h-24.287l-50.107 50.106c-2.928 2.93-6.767 4.394-10.606 4.394z" fill="#00607f"/></g><g><path d="m110.5 512h-30.5c-8.284 0-15-6.716-15-15s6.716-15 15-15h24.287l31.857-31.856c5.857-5.858 15.355-5.858 21.213 0s5.858 15.355 0 21.213l-36.25 36.25c-2.814 2.812-6.628 4.393-10.607 4.393z" fill="#007a9f"/></g><g><path d="m156 451.903c-3.882 0-7.62-1.506-10.421-4.212-2.926-2.827-4.578-6.72-4.578-10.788v-72.397c0-63.411 51.589-115 115-115s115 51.589 115 115v65.494c0 8.083-6.405 14.712-14.482 14.991l-200 6.903c-.174.006-.347.009-.519.009z" fill="#fff4f4"/></g><path d="m256.003 249.506v198.954l100.515-3.469c8.077-.279 14.482-6.908 14.482-14.991v-65.494c0-63.41-51.587-114.998-114.997-115z" fill="#f6efea"/><g><path d="m256 389c-3.657 0-7.313-1.331-10.188-3.991l-27-24.987c-4.529-4.191-6.029-10.728-3.781-16.474l27-69.014c2.25-5.751 7.794-9.535 13.969-9.535s11.719 3.784 13.969 9.535l27 69.014c2.248 5.746.748 12.283-3.781 16.474l-27 24.987c-2.875 2.661-6.531 3.991-10.188 3.991z" fill="#ff8856"/></g><path d="m438 248.5c0 2.513-.065 5.011-.167 7.5h59.039l-.872-29.338c-11.073-122.691-114.474-219.162-240-219.162v59c100.355 0 182 81.645 182 182z" fill="#4793ff"/><path d="m437.833 256c-1.939 47.577-22.222 90.502-53.959 121.874l41.7 41.7c42.424-42.056 69.336-99.727 71.298-163.574z" fill="#ff8856"/><path d="m256 489.5c65.876 0 125.653-26.577 169.2-69.561l-38.183-45.248c-33.127 34.382-79.615 55.809-131.017 55.809-51.573 0-98.202-21.566-131.35-56.149l-41.7 41.7c43.839 45.262 105.21 73.449 173.05 73.449z" fill="#bee75e"/><path d="m296.969 343.549-27-69.014c-2.25-5.75-7.792-9.534-13.966-9.535v124c3.656-.001 7.311-1.331 10.185-3.991l27-24.987c4.529-4.19 6.029-10.727 3.781-16.473z" fill="#ff435b"/><path d="m256.003 489.5c65.875-.001 125.651-26.578 169.197-69.561l-38.183-45.248c-33.127 34.382-79.613 55.807-131.015 55.808v59.001z" fill="#00cb75"/><g><path d="m256 276.506c-36.393 0-66-29.607-66-66s29.607-66 66-66 66 29.608 66 66-29.607 66-66 66z" fill="#ffe4c1"/></g><path d="m256.003 144.506v132c36.391-.002 65.997-29.608 65.997-66 0-36.391-29.606-65.998-65.997-66z" fill="#fdd1a3"/></g></svg>